<mxfile host="app.diagrams.net" modified="2023-11-23T18:21:34.971Z" agent="Mozilla/5.0 (Macintosh; Intel Mac OS X 10_15_7) AppleWebKit/537.36 (KHTML, like Gecko) Chrome/117.0.0.0 Safari/537.36" etag="TXpDrvuPZxmunE4M5r_f" version="22.1.3" type="device">
  <diagram id="C5RBs43oDa-KdzZeNtuy" name="Page-1">
    <mxGraphModel dx="1306" dy="840" grid="1" gridSize="10" guides="1" tooltips="1" connect="1" arrows="1" fold="1" page="1" pageScale="1" pageWidth="827" pageHeight="1169" math="0" shadow="0">
      <root>
        <mxCell id="WIyWlLk6GJQsqaUBKTNV-0" />
        <mxCell id="WIyWlLk6GJQsqaUBKTNV-1" parent="WIyWlLk6GJQsqaUBKTNV-0" />
        <mxCell id="WIyWlLk6GJQsqaUBKTNV-2" value="" style="rounded=0;html=1;jettySize=auto;orthogonalLoop=1;fontSize=11;endArrow=block;endFill=0;endSize=8;strokeWidth=1;shadow=0;labelBackgroundColor=none;edgeStyle=orthogonalEdgeStyle;entryX=0.5;entryY=0;entryDx=0;entryDy=0;" parent="WIyWlLk6GJQsqaUBKTNV-1" source="WIyWlLk6GJQsqaUBKTNV-3" target="U-LectiogdgYDqiN2JOS-0" edge="1">
          <mxGeometry relative="1" as="geometry">
            <mxPoint x="410" y="480" as="targetPoint" />
          </mxGeometry>
        </mxCell>
        <mxCell id="WIyWlLk6GJQsqaUBKTNV-3" value="Freek &lt;br&gt;(=Freedom Fan)&lt;br&gt;Generates Paperwallet" style="rounded=1;whiteSpace=wrap;html=1;fontSize=12;glass=0;strokeWidth=1;shadow=0;" parent="WIyWlLk6GJQsqaUBKTNV-1" vertex="1">
          <mxGeometry x="350" y="390" width="150" height="50" as="geometry" />
        </mxCell>
        <mxCell id="U-LectiogdgYDqiN2JOS-0" value="Freek&lt;br&gt;Hides Paperwallet &amp;amp; Creates Video" style="rounded=1;whiteSpace=wrap;html=1;fontSize=12;glass=0;strokeWidth=1;shadow=0;" parent="WIyWlLk6GJQsqaUBKTNV-1" vertex="1">
          <mxGeometry x="350" y="480" width="150" height="50" as="geometry" />
        </mxCell>
        <mxCell id="U-LectiogdgYDqiN2JOS-1" value="" style="rounded=0;html=1;jettySize=auto;orthogonalLoop=1;fontSize=11;endArrow=block;endFill=0;endSize=8;strokeWidth=1;shadow=0;labelBackgroundColor=none;edgeStyle=orthogonalEdgeStyle;entryX=0.5;entryY=0;entryDx=0;entryDy=0;" parent="WIyWlLk6GJQsqaUBKTNV-1" source="U-LectiogdgYDqiN2JOS-2" target="U-LectiogdgYDqiN2JOS-3" edge="1">
          <mxGeometry relative="1" as="geometry">
            <mxPoint x="410" y="660" as="targetPoint" />
          </mxGeometry>
        </mxCell>
        <mxCell id="U-LectiogdgYDqiN2JOS-2" value="Freek &lt;br&gt;Uploades Video on rumble.com" style="rounded=1;whiteSpace=wrap;html=1;fontSize=12;glass=0;strokeWidth=1;shadow=0;" parent="WIyWlLk6GJQsqaUBKTNV-1" vertex="1">
          <mxGeometry x="350" y="570" width="150" height="50" as="geometry" />
        </mxCell>
        <mxCell id="U-LectiogdgYDqiN2JOS-3" value="Freek &lt;br&gt;Adds Info Via https://FreeMe.Energy" style="rounded=1;whiteSpace=wrap;html=1;fontSize=12;glass=0;strokeWidth=1;shadow=0;" parent="WIyWlLk6GJQsqaUBKTNV-1" vertex="1">
          <mxGeometry x="350" y="660" width="150" height="50" as="geometry" />
        </mxCell>
        <mxCell id="U-LectiogdgYDqiN2JOS-4" value="" style="rounded=0;html=1;jettySize=auto;orthogonalLoop=1;fontSize=11;endArrow=block;endFill=0;endSize=8;strokeWidth=1;shadow=0;labelBackgroundColor=none;edgeStyle=orthogonalEdgeStyle;entryX=0.5;entryY=0;entryDx=0;entryDy=0;" parent="WIyWlLk6GJQsqaUBKTNV-1" edge="1">
          <mxGeometry relative="1" as="geometry">
            <mxPoint x="424.5" y="530" as="sourcePoint" />
            <mxPoint x="424.5" y="570" as="targetPoint" />
            <Array as="points">
              <mxPoint x="424.5" y="540" />
              <mxPoint x="424.5" y="540" />
            </Array>
          </mxGeometry>
        </mxCell>
        <mxCell id="U-LectiogdgYDqiN2JOS-5" value="" style="rounded=0;html=1;jettySize=auto;orthogonalLoop=1;fontSize=11;endArrow=block;endFill=0;endSize=8;strokeWidth=1;shadow=0;labelBackgroundColor=none;edgeStyle=orthogonalEdgeStyle;entryX=0.5;entryY=0;entryDx=0;entryDy=0;" parent="WIyWlLk6GJQsqaUBKTNV-1" target="U-LectiogdgYDqiN2JOS-6" edge="1">
          <mxGeometry relative="1" as="geometry">
            <mxPoint x="425" y="750" as="targetPoint" />
            <mxPoint x="424.5" y="710" as="sourcePoint" />
            <Array as="points">
              <mxPoint x="420" y="710" />
              <mxPoint x="420" y="730" />
              <mxPoint x="195" y="730" />
            </Array>
          </mxGeometry>
        </mxCell>
        <mxCell id="U-LectiogdgYDqiN2JOS-6" value="Freek &lt;br&gt;receives $FreedomCash" style="rounded=1;whiteSpace=wrap;html=1;fontSize=12;glass=0;strokeWidth=1;shadow=0;" parent="WIyWlLk6GJQsqaUBKTNV-1" vertex="1">
          <mxGeometry x="120" y="790" width="150" height="50" as="geometry" />
        </mxCell>
        <mxCell id="U-LectiogdgYDqiN2JOS-7" value="Paperwallet receives $FreedomCash" style="rounded=1;whiteSpace=wrap;html=1;fontSize=12;glass=0;strokeWidth=1;shadow=0;" parent="WIyWlLk6GJQsqaUBKTNV-1" vertex="1">
          <mxGeometry x="340" y="790" width="150" height="50" as="geometry" />
        </mxCell>
        <mxCell id="U-LectiogdgYDqiN2JOS-9" value="" style="rounded=0;html=1;jettySize=auto;orthogonalLoop=1;fontSize=11;endArrow=block;endFill=0;endSize=8;strokeWidth=1;shadow=0;labelBackgroundColor=none;edgeStyle=orthogonalEdgeStyle;entryX=0.5;entryY=0;entryDx=0;entryDy=0;exitX=0.5;exitY=1;exitDx=0;exitDy=0;" parent="WIyWlLk6GJQsqaUBKTNV-1" source="U-LectiogdgYDqiN2JOS-3" edge="1">
          <mxGeometry relative="1" as="geometry">
            <mxPoint x="424.5" y="790" as="targetPoint" />
            <mxPoint x="424.5" y="750" as="sourcePoint" />
          </mxGeometry>
        </mxCell>
        <mxCell id="U-LectiogdgYDqiN2JOS-10" value="CULT &amp;amp; Ryoshi (worth 369 FREEDOMCASH each) is burned each 369 Write Operations" style="rounded=1;whiteSpace=wrap;html=1;fontSize=12;glass=0;strokeWidth=1;shadow=0;" parent="WIyWlLk6GJQsqaUBKTNV-1" vertex="1">
          <mxGeometry x="580" y="790" width="150" height="60" as="geometry" />
        </mxCell>
        <mxCell id="U-LectiogdgYDqiN2JOS-11" value="" style="rounded=0;html=1;jettySize=auto;orthogonalLoop=1;fontSize=11;endArrow=block;endFill=0;endSize=8;strokeWidth=1;shadow=0;labelBackgroundColor=none;edgeStyle=orthogonalEdgeStyle;entryX=0.5;entryY=0;entryDx=0;entryDy=0;" parent="WIyWlLk6GJQsqaUBKTNV-1" target="U-LectiogdgYDqiN2JOS-10" edge="1">
          <mxGeometry relative="1" as="geometry">
            <mxPoint x="205" y="800" as="targetPoint" />
            <mxPoint x="430" y="710" as="sourcePoint" />
            <Array as="points">
              <mxPoint x="430" y="730" />
              <mxPoint x="655" y="730" />
            </Array>
          </mxGeometry>
        </mxCell>
        <mxCell id="U-LectiogdgYDqiN2JOS-13" value="&lt;font style=&quot;font-size: 18px;&quot;&gt;FreedomCash Goals&lt;br&gt;&lt;/font&gt;&lt;br&gt;Offer Playgrounds and Paths Into Freedom&lt;br&gt;&lt;br&gt;Offer education around self hosted offline wallets which can be used to collaborate freely &amp;amp; Peer To Peer&lt;br&gt;&lt;br&gt;Inspire people to serve as decentralized fiat on-/off ramps themselves" style="rounded=0;whiteSpace=wrap;html=1;" parent="WIyWlLk6GJQsqaUBKTNV-1" vertex="1">
          <mxGeometry x="40" y="180" width="760" height="170" as="geometry" />
        </mxCell>
      </root>
    </mxGraphModel>
  </diagram>
</mxfile>
